Coordinates
version=1
nRows=65
nColumns=12
inDegrees=yes

Units are S.I. units (second, meters, Newtons, ...)
Angles are in degrees

endheader
time	SC_y	SC_z	SC_x	AC_y	AC_z	AC_x	GH_y	GH_z	GH_yy	EL_x	PS_y
       0.0              -28.18          35.36          12.09          50.78         -6.471         -15.68          162.6          85.95          73.82          9.009          109.0
  0.007648              -28.18          35.36          12.09          50.78          -6.47         -15.67          162.6          85.95          73.82           9.02          109.0
    0.0153              -28.18          35.36           12.1          50.78         -6.469         -15.67          162.6          85.94          73.83          9.032          109.0
   0.02294              -28.18          35.36           12.1          50.78         -6.469         -15.66          162.6          85.93          73.84          9.045          109.0
   0.03059              -28.18          35.36           12.1          50.78         -6.468         -15.66          162.6          85.93          73.85          9.058          109.0
   0.03824              -28.18          35.36           12.1          50.79         -6.468         -15.66          162.6          85.92          73.87          9.073          109.0
   0.04589              -28.18          35.36          12.11          50.79         -6.467         -15.65          162.6          85.91          73.88          9.088          108.9
   0.05353              -28.18          35.36          12.11          50.79         -6.466         -15.64          162.6           85.9          73.89          9.105          108.9
   0.06118              -28.17          35.37          12.11          50.79         -6.465         -15.64          162.6          85.89          73.91          9.123          108.9
   0.06883              -28.17          35.37          12.11          50.79         -6.464         -15.63          162.6          85.88          73.92          9.142          108.9
   0.07648              -28.17          35.37          12.12          50.79         -6.463         -15.63          162.6          85.87          73.94          9.162          108.8
   0.08413              -28.17          35.37          12.12          50.79         -6.462         -15.62          162.6          85.86          73.95          9.184          108.8
   0.09177              -28.17          35.37          12.12          50.79         -6.461         -15.61          162.6          85.85          73.97          9.208          108.8
   0.09942              -28.17          35.37          12.13          50.79          -6.46          -15.6          162.6          85.83          73.99          9.234          108.7
    0.1071              -28.16          35.37          12.13           50.8         -6.459         -15.59          162.6          85.82          74.01          9.261          108.7
    0.1147              -28.16          35.37          12.14           50.8         -6.457         -15.58          162.6           85.8          74.04          9.291          108.7
    0.1224              -28.16          35.38          12.14           50.8         -6.456         -15.57          162.6          85.79          74.06          9.324          108.6
      0.13              -28.15          35.38          12.15           50.8         -6.454         -15.56          162.6          85.77          74.09           9.36          108.6
    0.1377              -28.15          35.38          12.15           50.8         -6.452         -15.55          162.6          85.75          74.12          9.398          108.5
    0.1453              -28.15          35.38          12.16           50.8          -6.45         -15.53          162.6          85.72          74.16          9.441          108.5
     0.153              -28.14          35.38          12.17          50.81         -6.448         -15.52          162.6           85.7          74.19          9.488          108.4
    0.1606              -28.14          35.39          12.17          50.81         -6.446          -15.5          162.6          85.67          74.23          9.539          108.3
    0.1683              -28.14          35.39          12.18          50.81         -6.443         -15.48          162.5          85.64          74.28          9.596          108.3
    0.1759              -28.13          35.39          12.19          50.82          -6.44         -15.46          162.5          85.61          74.33          9.659          108.2
    0.1835              -28.12           35.4           12.2          50.82         -6.437         -15.43          162.5          85.57          74.38          9.729          108.1
    0.1912              -28.12           35.4          12.22          50.82         -6.433         -15.41          162.5          85.53          74.44          9.807          108.0
    0.1988              -28.11          35.41          12.23          50.83         -6.429         -15.38          162.5          85.48          74.51          9.894          107.9
    0.2065               -28.1          35.41          12.24          50.83         -6.424         -15.35          162.5          85.43          74.59          9.993          107.7
    0.2141              -28.09          35.42          12.26          50.84         -6.419         -15.31          162.5          85.37          74.68           10.1          107.6
    0.2218              -28.08          35.42          12.28          50.84         -6.413         -15.27          162.4          85.31          74.77          10.23          107.4
    0.2294              -28.07          35.43           12.3          50.85         -6.407         -15.22          162.4          85.23          74.89          10.37          107.2
    0.2371              -28.06          35.44          12.33          50.86         -6.399         -15.16          162.4          85.14          75.02          10.54          107.0
    0.2447              -28.04          35.45          12.36          50.87          -6.39          -15.1          162.3          85.04          75.17          10.73          106.7
    0.2524              -28.02          35.46          12.39          50.88          -6.38         -15.02          162.3          84.92          75.34          10.95          106.4
      0.26               -28.0          35.47          12.43          50.89         -6.367         -14.93          162.3          84.78          75.54          11.21          106.1
    0.2677              -27.97          35.49          12.48          50.91         -6.353         -14.83          162.2          84.62          75.78          11.52          105.7
    0.2753              -27.94          35.51          12.54          50.93         -6.336         -14.71          162.1          84.43          76.07          11.88          105.2
     0.283              -27.91          35.53           12.6          50.95         -6.316         -14.56          162.1           84.2          76.41          12.32          104.6
    0.2906              -27.86          35.56          12.68          50.98         -6.291         -14.38          162.0          83.92          76.83          12.84          103.9
    0.2983              -27.81          35.59          12.78          51.01         -6.261         -14.17          161.8          83.58          77.33          13.49          103.1
    0.3059              -27.74          35.63           12.9          51.05         -6.224          -13.9          161.7          83.15          77.95          14.28          102.0
    0.3136              -27.66          35.69          13.06           51.1         -6.177         -13.57          161.5          82.63          78.73          15.27          100.7
    0.3212              -27.56          35.75          13.25          51.16         -6.119         -13.14          161.3          81.97          79.71          16.52          99.02
    0.3289              -27.42          35.83          13.49          51.25         -6.044         -12.61          161.0          81.12          80.96          18.11           96.9
    0.3365              -27.25          35.94          13.81          51.35         -5.949         -11.92          160.7          80.04          82.55          20.14          94.19
    0.3441              -27.03          36.08          14.21          51.48         -5.827         -11.05          160.2          78.66           84.6          22.75          90.72
    0.3518              -26.76          36.25          14.72          51.65         -5.671         -9.924          159.6          76.89          87.21          26.08          86.28
    0.3594              -26.41          36.47          15.37          51.86         -5.475         -8.513          158.8          74.67           90.5          30.27          80.69
    0.3671              -25.98          36.73          16.15          52.12         -5.236         -6.793          157.9          71.96           94.5          35.37          73.89
    0.3747              -25.48          37.04          17.06          52.43         -4.959         -4.799          156.9          68.82          99.14          41.29           66.0
    0.3824              -24.95          37.38          18.05          52.75         -4.659         -2.641          155.7          65.42          104.2          47.69          57.46
      0.39              -24.41          37.71          19.03          53.08         -4.359        -0.4822          154.6          62.02          109.2           54.1          48.92
    0.3977              -23.92          38.02          19.95          53.38         -4.082          1.511          153.5          58.88          113.8          60.01          41.03
    0.4053              -23.49          38.28          20.73          53.64         -3.843          3.231          152.6          56.17          117.8          65.12          34.23
     0.413              -23.14           38.5          21.38          53.85         -3.647          4.642          151.9          53.95          121.1          69.31          28.64
    0.4206              -22.86          38.68          21.89          54.02         -3.491          5.765          151.3          52.18          123.7          72.64           24.2
    0.4283              -22.64          38.81          22.29          54.15         -3.369          6.643          150.8           50.8          125.8          75.24          20.72
    0.4359              -22.47          38.92           22.6          54.26         -3.274          7.328          150.4          49.72          127.4          77.28          18.02
    0.4436              -22.34           39.0          22.85          54.34         -3.199          7.863          150.2          48.88          128.6          78.86           15.9
    0.4512              -22.24          39.07          23.04           54.4         -3.141          8.284          149.9          48.22          129.6          80.11          14.23
    0.4589              -22.15          39.12          23.19          54.45         -3.094          8.618          149.8          47.69          130.4           81.1          12.91
    0.4665              -22.09          39.16          23.31          54.49         -3.057          8.886          149.6          47.27          131.0           81.9          11.85
    0.4742              -22.03          39.19          23.41          54.53         -3.027          9.103          149.5          46.93          131.5          82.54          10.99
    0.4818              -21.99          39.22          23.49          54.55         -3.002           9.28          149.4          46.65          131.9          83.07          10.29
    0.4895              -21.95          39.24          23.56          54.57         -2.982          9.427          149.3          46.42          132.3          83.51          9.709
